<svg data-v-6bb09995="" xmlns="http://www.w3.org/2000/svg" width="100" height="100" viewBox="0 0 100 100" aria-labelledby="#icon-download-linux" role="presentation" class="download-linux">
  <circle cx="45" cy="45" r="45" fill="#EEF0F5"></circle>
  <path d="M63.0138 36.3885C61.38 36.3885 60.0266 37.6765 60.0266 39.2405V50.3318C60.0266 51.8958 61.3338 53.1848 63.0138 53.1848C64.6466 53.1848 66 51.8958 66 50.3307V39.2416C65.9538 37.6776 64.6466 36.3896 63.0138 36.3896V36.3885ZM26.9862 36.3885C25.3545 36.3885 24 37.6765 24 39.2395V50.3318C24 51.8958 25.3062 53.1848 26.9862 53.1848C28.6662 53.1848 29.9735 51.8958 29.9735 50.3307V39.2416C29.9735 37.6776 28.6662 36.3896 26.9862 36.3896V36.3885ZM31.7931 36.4805V56.7728C31.7931 57.9688 32.82 58.9809 34.1262 58.9809H36.7869V65.1469C36.7869 66.712 38.0931 68 39.7731 68C41.4069 68 42.7604 66.712 42.7604 65.1469V58.9809H47.4266V65.1469C47.4266 66.712 48.7338 68 50.4138 68C52.0455 68 53.4 66.712 53.4 65.1469V58.9809H56.0597C57.3669 58.9809 58.3938 58.0148 58.3938 56.7728V36.4795H31.7931V36.4805ZM51.3 25.9883L53.7738 22.6753C53.8662 22.4453 53.8662 22.1693 53.6331 22.0773C53.4462 21.9393 53.1669 22.0313 53.0262 22.2153L50.5062 25.6663C48.7399 25.0327 46.8774 24.7059 45 24.7003C43.0396 24.7003 41.1738 25.0223 39.4938 25.6663L36.9738 22.2163C36.8331 21.9863 36.5538 21.9393 36.3669 22.0773C36.276 22.1451 36.2152 22.2455 36.1976 22.3572C36.1799 22.4689 36.2068 22.583 36.2724 22.6753L38.7462 25.9894C34.8738 27.6914 32.1207 30.9124 31.7931 34.6855H58.3476C57.9276 30.9114 55.2197 27.6914 51.3 25.9883ZM39.4004 31.2344C38.5604 31.2344 37.9535 30.6364 37.9535 29.8544C37.9535 29.0714 38.6066 28.4744 39.4004 28.4744C40.2404 28.4744 40.8462 29.0714 40.8462 29.8544C40.8462 30.6364 40.1931 31.2344 39.4004 31.2344ZM50.7866 31.2344C49.9466 31.2344 49.3396 30.6364 49.3396 29.8544C49.3396 29.0714 49.9938 28.4744 50.7866 28.4744C51.6266 28.4744 52.2334 29.0714 52.2334 29.8544C52.2334 30.6364 51.5804 31.2344 50.7866 31.2344Z" fill="#4E5A70"></path>
</svg>