<svg data-v-6bb09995="" xmlns="http://www.w3.org/2000/svg" width="100" height="100" viewBox="0 0 100 100" aria-labelledby="#icon-download-linux" role="presentation" class="download-linux">
<circle cx="50" cy="50" r="50" fill="#EEF0F5"></circle>
<path d="M74.0184 39.3933C71.84 39.3933 70.0354 41.1293 70.0354 43.2373V58.1863C70.0354 60.2943 71.7784 62.0317 74.0184 62.0317C76.1954 62.0317 78 60.2943 78 58.1849V43.2387C77.9384 41.1307 76.1954 39.3947 74.0184 39.3947V39.3933ZM25.9816 39.3933C23.806 39.3933 22 41.1293 22 43.2358V58.1863C22 60.2943 23.7416 62.0317 25.9816 62.0317C28.2216 62.0317 29.9646 60.2943 29.9646 58.1849V43.2387C29.9646 41.1307 28.2216 39.3947 25.9816 39.3947V39.3933ZM32.3908 39.5173V66.8677C32.3908 68.4798 33.76 69.8438 35.5016 69.8438H39.0492V78.1546C39.0492 80.264 40.7908 82 43.0308 82C45.2092 82 47.0138 80.264 47.0138 78.1546V69.8438H53.2354V78.1546C53.2354 80.264 54.9784 82 57.2184 82C59.394 82 61.2 80.264 61.2 78.1546V69.8438H64.7462C66.4892 69.8438 67.8584 68.5418 67.8584 66.8677V39.5158H32.3908V39.5173ZM58.4 25.3756L61.6984 20.9102C61.8216 20.6002 61.8216 20.2282 61.5108 20.1042C61.2616 19.9182 60.8892 20.0422 60.7016 20.2902L57.3416 24.9416C54.9866 24.0875 52.5032 23.6471 50 23.6396C47.3862 23.6396 44.8984 24.0736 42.6584 24.9416L39.2984 20.2916C39.1108 19.9816 38.7384 19.9182 38.4892 20.1042C38.368 20.1955 38.287 20.3309 38.2635 20.4814C38.2399 20.632 38.2757 20.7858 38.3632 20.9102L41.6616 25.377C36.4984 27.671 32.8276 32.0124 32.3908 37.0978H67.7968C67.2368 32.011 63.6262 27.671 58.4 25.3756ZM42.5338 32.4464C41.4138 32.4464 40.6046 31.6404 40.6046 30.5864C40.6046 29.531 41.4754 28.7264 42.5338 28.7264C43.6538 28.7264 44.4616 29.531 44.4616 30.5864C44.4616 31.6404 43.5908 32.4464 42.5338 32.4464ZM57.7154 32.4464C56.5954 32.4464 55.7862 31.6404 55.7862 30.5864C55.7862 29.531 56.6584 28.7264 57.7154 28.7264C58.8354 28.7264 59.6446 29.531 59.6446 30.5864C59.6446 31.6404 58.7738 32.4464 57.7154 32.4464Z" fill="#7D7F85"></path>
</svg>