<svg data-v-6bb09995="" xmlns="http://www.w3.org/2000/svg" width="100" height="100" viewBox="0 0 100 100" aria-labelledby="#icon-download-linux" role="presentation" class="download-linux">
<circle cx="50" cy="50" r="50" fill="#EEF0F5"></circle>
<path d="M51.7481 21C51.364 21 50.9674 21.0193 50.561 21.0507C40.0857 21.8554 42.8638 32.6668 42.7052 36.2698C42.5143 38.911 41.9617 40.9916 40.1006 43.57C37.9074 46.1098 34.8295 50.2154 33.3698 54.495C32.6809 56.5055 32.3538 58.5644 32.6586 60.5097C32.5446 60.5986 32.451 60.7097 32.3835 60.8359C31.7392 61.4835 31.2708 62.2882 30.7429 62.8633C30.2498 63.3442 29.541 63.5085 28.7678 63.8299C27.9921 64.1586 27.1372 64.48 26.6266 65.4756C26.4036 65.9299 26.2896 66.4252 26.2995 66.9279C26.2995 67.4088 26.3664 67.8969 26.4358 68.2231C26.5796 69.1873 26.7233 69.9847 26.5325 70.5671C25.9179 72.2103 25.8411 73.3364 26.2723 74.1556C26.7035 74.9627 27.5981 75.2889 28.5993 75.6079C30.6091 76.0912 33.3326 75.9341 35.4763 77.0554C37.7711 78.1839 40.1006 78.6769 41.9592 78.1911C43.2628 77.9132 44.3631 77.0723 44.9529 75.9076C46.4076 75.9003 48.0011 75.2575 50.5536 75.1005C52.2858 74.9603 54.4543 75.7457 56.9424 75.5813C57.0043 75.9076 57.0985 76.0622 57.2249 76.3884L57.2323 76.3957C58.2013 78.2757 59.9906 79.1312 61.9012 78.9838C63.8119 78.8388 65.8465 77.6885 67.4945 75.8278C69.0583 73.9792 71.6653 73.2083 73.3877 72.1958C74.2501 71.7149 74.9464 71.0625 74.996 70.1346C75.053 69.168 74.5028 68.1724 73.2266 66.807V66.5726L73.2191 66.5654C72.7978 66.0821 72.5996 65.2726 72.3815 64.3277C72.1709 63.3587 71.9305 62.4284 71.1622 61.8001H71.1548C71.0086 61.6696 70.85 61.6382 70.6889 61.4738C70.5503 61.3795 70.3869 61.3258 70.218 61.3192C71.2861 58.2309 70.8723 55.1571 69.7893 52.3927C68.4684 48.9854 66.1588 46.018 64.3993 43.976C62.4266 41.5474 60.4936 39.2469 60.5308 35.8349C60.5977 30.6346 61.1181 21.0145 51.7481 21V21ZM53.059 29.2282H53.0913C53.6191 29.2282 54.0726 29.378 54.5385 29.7066C55.0119 30.0329 55.3563 30.5089 55.6264 30.9946C55.8867 31.6205 56.018 32.1038 56.0378 32.7442C56.0378 32.6958 56.0527 32.6475 56.0527 32.6016V32.8529C56.0472 32.8365 56.0439 32.8194 56.0428 32.8022L56.0329 32.7442C56.0279 33.3314 55.9015 33.9117 55.6611 34.4502C55.5454 34.7532 55.3656 35.029 55.1333 35.2597C55.0631 35.2211 54.9902 35.1872 54.9152 35.1582C54.655 35.0495 54.4221 35.0036 54.2089 34.8368C54.0331 34.7684 53.8515 34.715 53.6662 34.6774C53.7876 34.5348 54.0255 34.356 54.1172 34.1989C54.2486 33.8896 54.3204 33.5609 54.3353 33.2275V33.1815C54.3409 32.8534 54.2898 32.5266 54.1841 32.2149C54.0726 31.8887 53.9338 31.7292 53.7306 31.4078C53.5225 31.2483 53.3168 31.0889 53.069 31.0889H53.0293C52.7988 31.0889 52.5931 31.1614 52.38 31.4078C52.1447 31.6316 51.9701 31.909 51.872 32.2149C51.7404 32.522 51.6649 32.8491 51.649 33.1815V33.2275C51.6539 33.4425 51.6688 33.66 51.6985 33.8727C51.2202 33.7108 50.6131 33.5464 50.1943 33.3845C50.1693 33.2253 50.1544 33.0647 50.1496 32.9036V32.8553C50.1298 32.2166 50.2568 31.5817 50.5214 30.997C50.7246 30.4678 51.0963 30.0159 51.587 29.709C52.0109 29.3968 52.5278 29.228 53.059 29.2282ZM45.7186 29.3707H45.8079C46.1598 29.3707 46.477 29.4867 46.7967 29.697C47.1585 30.0087 47.4509 30.3929 47.6492 30.8206C47.8722 31.3015 47.9986 31.7896 48.0283 32.4324V32.4421C48.0457 32.7659 48.0432 32.9278 48.0234 33.0849V33.2782C47.949 33.2951 47.8846 33.3217 47.8177 33.3362C47.441 33.4691 47.1386 33.6624 46.8437 33.8195C46.8735 33.6044 46.876 33.3869 46.8512 33.1743V33.138C46.8214 32.8167 46.7545 32.6572 46.648 32.3334C46.5707 32.0871 46.4289 31.8647 46.2366 31.6882C46.1755 31.634 46.1039 31.5924 46.026 31.5658C45.948 31.5392 45.8654 31.5283 45.7831 31.5335H45.731C45.5551 31.548 45.4089 31.6326 45.2701 31.8525C45.112 32.0396 45.0092 32.2651 44.9727 32.5049C44.9054 32.7662 44.8861 33.037 44.9157 33.3048V33.3386C44.9454 33.6648 45.0074 33.8243 45.1164 34.1457C45.228 34.4695 45.3568 34.629 45.5253 34.7933C45.5526 34.8151 45.5774 34.8368 45.6096 34.8513C45.4361 34.9891 45.3197 35.0205 45.1734 35.18C45.0807 35.2598 44.9692 35.3163 44.8488 35.3443C44.5912 35.0418 44.363 34.7166 44.1673 34.3729C43.933 33.8651 43.8025 33.3176 43.7832 32.7611C43.7421 32.2156 43.8094 31.6675 43.9814 31.1469C44.1179 30.6721 44.3571 30.2312 44.6828 29.854C45 29.5326 45.3271 29.3707 45.7186 29.3707ZM49.1162 33.4933C49.9365 33.4933 50.9303 33.6503 52.1272 34.4575C52.8534 34.9408 53.4233 35.1075 54.7368 35.5884H54.7442C55.3762 35.917 55.7479 36.2312 55.9288 36.5526V36.236C56.0177 36.4117 56.0673 36.6039 56.0741 36.7997C56.0809 36.9955 56.0449 37.1905 55.9684 37.3717C55.6636 38.1233 54.6897 38.928 53.3316 39.4088V39.4137C52.6675 39.7399 52.0901 40.2184 51.411 40.5373C50.7271 40.8636 49.9539 41.243 48.9031 41.1826C48.5257 41.2016 48.1481 41.1466 47.7929 41.0206C47.5184 40.875 47.252 40.7153 46.9949 40.5422C46.5117 40.216 46.0953 39.7399 45.4783 39.4185V39.4064H45.4659C44.4746 38.812 43.9393 38.1692 43.7658 37.6883C43.5948 37.0407 43.7534 36.555 44.2441 36.2384C44.7992 35.9122 45.1858 35.5835 45.4411 35.4265C45.6988 35.2476 45.7955 35.18 45.8772 35.1099H45.8822V35.1027C46.301 34.6145 46.9627 33.9693 47.9614 33.6503C48.3059 33.5633 48.69 33.4933 49.1162 33.4933ZM56.0527 38.6718C56.9424 42.096 59.0191 47.0691 60.3548 49.4808C61.0636 50.7712 62.4737 53.4898 63.0858 56.7883C63.4724 56.7762 63.9011 56.8318 64.3571 56.9429C65.958 52.905 63.004 48.5649 61.6584 47.3591C61.1107 46.8734 61.0834 46.5496 61.3536 46.5496C62.8132 47.84 64.7363 50.3483 65.4327 53.2119C65.7523 54.5047 65.8267 55.8797 65.4847 57.2474C65.6507 57.3151 65.8193 57.3948 65.9927 57.4093C68.5502 58.6997 69.4944 59.676 69.0409 61.1235V61.0195C68.8897 61.0123 68.7435 61.0195 68.5924 61.0195H68.5552C68.9294 59.891 68.1041 59.0259 65.9159 58.0618C63.6484 57.0952 61.8368 57.2498 61.527 59.1854C61.5097 59.2893 61.4973 59.3449 61.4849 59.5117C61.3164 59.5672 61.1404 59.6397 60.967 59.6663C59.9013 60.3139 59.3264 61.2829 59.0018 62.5347C58.6796 63.8227 58.5805 65.3282 58.4937 67.0511V67.0584C58.4417 67.8655 58.07 69.0834 57.7032 70.323C53.9859 72.9135 48.8312 74.0396 44.4473 71.1302C44.1724 70.6615 43.8376 70.2287 43.4511 69.8422C43.2666 69.5414 43.0369 69.2693 42.7696 69.0351C43.2206 69.0351 43.6072 68.965 43.9219 68.8731C44.2783 68.712 44.5571 68.4228 44.7001 68.066C44.9677 67.4208 44.7001 66.3817 43.8451 65.2557C42.9901 64.1272 41.5379 62.8512 39.4141 61.5802C37.8529 60.616 36.9706 59.4778 36.5642 58.2067C36.1553 56.9163 36.2098 55.5849 36.527 54.2316C37.1342 51.646 38.6905 49.1328 39.6842 47.5548C39.9494 47.3978 39.7759 47.8811 38.6731 49.9085C37.6918 51.7233 35.8455 55.9425 38.3708 59.2217C38.4662 56.8291 39.0096 54.4737 39.9742 52.2718C41.3719 49.1836 44.2937 43.8044 44.5242 39.5418C44.6431 39.6287 45.0619 39.868 45.2403 40.0299C45.7806 40.3513 46.1821 40.8346 46.7025 41.1536C47.2254 41.6393 47.8846 41.9631 48.8734 41.9631C48.97 41.9703 49.0592 41.9776 49.1485 41.9776C50.167 41.9776 50.9551 41.6538 51.6167 41.33C52.3354 41.0061 52.9079 40.5229 53.4506 40.3634H53.463C54.6203 40.0371 55.5348 39.3919 56.0527 38.6718ZM61.47 60.3188C61.5617 61.7711 62.32 63.3273 63.6558 63.6463C65.113 63.9701 67.2095 62.8416 68.0942 61.7977L68.6171 61.7759C69.3978 61.7566 70.0471 61.8001 70.7162 62.4211L70.7236 62.4284C71.2391 62.9092 71.4794 63.7115 71.6926 64.5452C71.9032 65.5142 72.0742 66.4301 72.7062 67.1212C73.9106 68.3947 74.3046 69.3105 74.2823 69.876L74.2897 69.8615V69.905L74.2823 69.876C74.2451 70.5091 73.8238 70.8329 73.0481 71.3138C71.4869 72.2828 68.7212 73.0343 66.9592 75.1077C65.4277 76.8887 63.5616 77.8601 61.9136 77.9857C60.2681 78.1138 58.8481 77.5024 58.013 75.8157L58.0006 75.8085C57.4801 74.8395 57.7032 73.3316 58.1393 71.7246C58.5755 70.1104 59.2 68.4744 59.2867 67.1381C59.3784 65.4127 59.4751 63.9121 59.77 62.7546C60.0674 61.6309 60.5333 60.8286 61.3585 60.3768L61.47 60.3236V60.3188ZM34.6684 60.4372H34.6932C34.8245 60.4372 34.9534 60.4493 35.0822 60.471C36.014 60.6039 36.8318 61.2757 37.6174 62.2882L39.8726 66.3092L39.88 66.3165C40.4822 67.6045 41.7486 68.8876 42.8266 70.2747C43.9021 71.7198 44.7348 73.0078 44.6332 74.0686V74.0831C44.4919 75.881 43.4461 76.8572 41.8452 77.2101C40.2468 77.5363 38.0784 77.2149 35.91 76.0888C33.5111 74.7936 30.6611 74.9555 28.8298 74.6341C27.9153 74.4746 27.3156 74.1484 27.038 73.6651C26.7629 73.1842 26.758 72.2127 27.3428 70.6928V70.6855L27.3478 70.6783C27.6378 69.8712 27.4221 68.8586 27.2809 67.9742C27.1446 67.0052 27.0752 66.2609 27.3875 65.7027C27.784 64.8956 28.3688 64.7385 29.0949 64.4147C29.826 64.0885 30.6834 63.9266 31.365 63.2814H31.3699V63.2741C32.0043 62.6265 32.4727 61.8218 33.0253 61.2491C33.4962 60.7634 33.9671 60.4372 34.6684 60.4372ZM52.4098 38.5099C51.3317 38.9956 50.0679 39.8027 48.7222 39.8027C47.379 39.8027 46.3184 39.1575 45.5526 38.6766C45.1685 38.3528 44.8587 38.029 44.6258 37.8671C44.2193 37.5433 44.2689 37.06 44.4424 37.06C44.7125 37.0987 44.7621 37.3862 44.9355 37.5457C45.1734 37.7052 45.4683 38.0266 45.8302 38.3504C46.5513 38.8337 47.5153 39.4789 48.7197 39.4789C49.9217 39.4789 51.3293 38.8337 52.1842 38.3528C52.6675 38.0266 53.287 37.5457 53.7901 37.2243C54.1767 36.8933 54.1594 36.5767 54.4815 36.5767C54.8012 36.6154 54.5658 36.9005 54.1172 37.3814C53.5675 37.7868 52.9968 38.1642 52.4073 38.5123V38.5099H52.4098ZM49.7284 34.6822V34.629C49.7135 34.5831 49.7606 34.5275 49.8002 34.5082C49.9836 34.4043 50.2463 34.443 50.4446 34.5179C50.6007 34.5179 50.8411 34.6798 50.8163 34.8441C50.8014 34.9625 50.6056 35.0036 50.4817 35.0036C50.3454 35.0036 50.2537 34.8997 50.1323 34.8393C50.0034 34.7958 49.7705 34.8199 49.7284 34.6822ZM48.3629 34.6822C48.3133 34.8223 48.0828 34.8006 47.9515 34.8417C47.835 34.9021 47.7384 35.006 47.607 35.006C47.4806 35.006 47.2824 34.9601 47.2675 34.8417C47.2452 34.6822 47.4856 34.5203 47.6392 34.5203C47.84 34.4454 48.0952 34.4067 48.2811 34.5082C48.3282 34.5299 48.3703 34.5807 48.3554 34.629V34.6798H48.3629V34.6822Z" fill="#7D7F85"></path>
</svg>