<svg data-v-6bb09995="" xmlns="http://www.w3.org/2000/svg" width="100" height="100" viewBox="0 0 100 100" aria-labelledby="#icon-download-linux" role="presentation" class="download-linux">
<circle cx="50" cy="50" r="50" fill="#EEF0F5"></circle>
<path fill-rule="evenodd" clip-rule="evenodd" d="M70 25C70 22.2386 67.7614 20 65 20H36C33.2386 20 31 22.2386 31 25L31 74C31 76.7614 33.2386 79 36 79H65C67.7614 79 70 76.7614 70 74L70 25ZM60.7741 54.9795C60.7782 54.9661 60.781 54.9568 60.7826 54.9519C60.7482 54.9393 57.5539 53.7209 57.5157 50.006C57.4884 47.0456 59.8395 45.5339 60.1182 45.3547C60.1292 45.3476 60.137 45.3426 60.1413 45.3397C58.7122 43.2517 56.4942 42.9516 55.7012 42.9175C54.545 42.7965 53.4256 43.2431 52.5076 43.6094C51.9218 43.8431 51.418 44.0441 51.0389 44.0441C50.6294 44.0441 50.1195 43.8395 49.5467 43.6096C48.7943 43.3077 47.9333 42.9621 47.0478 42.979C44.978 43.0113 43.0773 44.1969 42.0199 46.0619C39.8707 49.7895 41.4732 55.3517 43.5544 58.3849C44.5728 59.8656 45.7977 61.5566 47.3896 61.4909C48.1068 61.4652 48.6166 61.2446 49.1445 61.0162C49.7499 60.7542 50.3789 60.482 51.3714 60.482C52.3232 60.482 52.9245 60.7461 53.503 61.0002C54.0552 61.2427 54.5867 61.4762 55.3824 61.4621C57.0393 61.4357 58.0883 59.9357 59.1028 58.4478C60.2135 56.8134 60.7 55.2217 60.7741 54.9795ZM55.7295 37C55.8772 38.4337 55.3159 39.8774 54.4619 40.9276C53.6125 41.9391 52.2194 42.7374 50.8645 42.6544C50.6726 41.2374 51.3607 39.7712 52.1414 38.8604C53.0244 37.8164 54.5101 37.0483 55.7295 37Z" fill="#7D7F85"></path>
</svg>