<svg data-v-6bb09995="" xmlns="http://www.w3.org/2000/svg" width="100" height="100" viewBox="0 0 100 100" aria-labelledby="#icon-download-linux" role="presentation" class="download-linux">
  <circle cx="45" cy="45" r="45" fill="#EEF0F5"></circle>
  <path d="M63 53.323C62.9444 53.4911 62.0763 56.5116 59.9432 59.6174C58.097 62.2965 56.188 64.9973 53.1729 65.0447C50.2078 65.0967 49.259 63.28 45.8737 63.28C42.4927 63.28 41.4298 64.9973 38.6276 65.0967C35.7308 65.2149 33.5017 62.1701 31.6485 59.5041C27.8611 54.0427 24.9449 44.0278 28.856 37.3162C30.7803 33.9581 34.2391 31.8235 38.0057 31.7652C40.8441 31.7117 43.5446 33.6831 45.2686 33.6831C47.0397 33.6831 50.3066 31.2977 53.753 31.6546C55.1961 31.7159 59.2323 32.2563 61.8329 36.0158C61.6283 36.1547 57.0034 38.877 57.0549 44.4176C57.1244 51.1064 62.9374 53.3001 63 53.323ZM51.4977 28.0717C53.0519 26.1807 54.0732 23.5814 53.8044 21C51.5854 21.0868 48.8818 22.4699 47.275 24.3496C45.8542 25.9896 44.602 28.6294 44.9512 31.1808C47.4168 31.3302 49.9519 29.893 51.4977 28.0717Z" fill="#4E5A70"></path>
</svg>