<svg data-v-6bb09995="" xmlns="http://www.w3.org/2000/svg" width="100" height="100" viewBox="0 0 100 100" aria-labelledby="#icon-download-linux" role="presentation" class="download-linux">
<circle cx="50" cy="50" r="50" fill="#EEF0F5"></circle>
<path d="M70 57.9144C69.9383 58.1013 68.9737 61.4573 66.6036 64.9082C64.5522 67.885 62.4311 70.8858 59.081 70.9385C55.7865 70.9963 54.7322 68.9778 50.9708 68.9778C47.2141 68.9778 46.0331 70.8858 42.9195 70.9963C39.7009 71.1277 37.2241 67.7446 35.165 64.7824C30.9568 58.7141 27.7166 47.5865 32.0622 40.1291C34.2004 36.3979 38.0435 34.0261 42.2285 33.9614C45.3823 33.9019 48.3829 36.0923 50.2984 36.0923C52.2663 36.0923 55.8962 33.4419 59.7256 33.8384C61.3289 33.9066 65.8137 34.507 68.7032 38.6842C68.4759 38.8385 63.3371 41.8633 63.3944 48.0195C63.4716 55.4515 69.9305 57.889 70 57.9144ZM57.2197 29.8574C58.9465 27.7563 60.0813 24.8682 59.7827 22C57.3171 22.0965 54.3131 23.6332 52.5277 25.7218C50.9492 27.544 49.5578 30.4771 49.9458 33.312C52.6853 33.478 55.5021 31.8811 57.2197 29.8574Z" fill="#7D7F85"></path>
</svg>