<svg data-v-6bb09995="" xmlns="http://www.w3.org/2000/svg" width="100" height="100" viewBox="0 0 100 100" aria-labelledby="#icon-download-linux" role="presentation" class="download-linux">
<ellipse cx="49.5" cy="50.5" rx="40.5" ry="39.5" fill="#7D7F85"></ellipse>
<path d="M50 0C40.1109 0 30.444 2.93245 22.2215 8.42652C13.999 13.9206 7.59043 21.7295 3.80604 30.8658C0.0216641 40.0021 -0.968502 50.0555 0.960758 59.7545C2.89002 69.4536 7.65206 78.3627 14.6447 85.3553C21.6373 92.3479 30.5465 97.11 40.2455 99.0392C49.9445 100.968 59.9979 99.9783 69.1342 96.194C78.2705 92.4096 86.0794 86.001 91.5735 77.7785C97.0676 69.556 100 59.8891 100 50C100 36.7392 94.7322 24.0215 85.3553 14.6447C75.9785 5.26784 63.2608 0 50 0ZM75.07 44.94C73.1216 48.0641 70.0813 50.3522 66.54 51.36C65.7678 51.6119 64.9622 51.7468 64.15 51.7599C63.3997 51.7555 62.6816 51.4544 62.1526 50.9223C61.6236 50.3902 61.3266 49.6703 61.3266 48.92C61.3266 48.1696 61.6236 47.4498 62.1526 46.9176C62.6816 46.3855 63.3997 46.0844 64.15 46.08C64.3661 46.0849 64.5808 46.044 64.78 45.9599C67.0543 45.3947 69.0153 43.9581 70.24 41.96C70.9524 40.7953 71.3264 39.4553 71.32 38.09C71.32 33.6 67.17 29.9 62.1101 29.9C60.359 29.9037 58.638 30.3546 57.1101 31.21C55.8506 31.8732 54.7909 32.8604 54.0403 34.0699C53.2897 35.2793 52.8754 36.6671 52.84 38.09V61.94C52.8152 64.3558 52.1436 66.7207 50.8949 68.7889C49.6463 70.8571 47.8663 72.5529 45.7401 73.7C43.363 75.0365 40.6769 75.7261 37.95 75.7C29.71 75.7 22.95 69.5 22.95 61.83C22.9646 59.4239 23.6316 57.0669 24.88 55.0099C26.8285 51.8859 29.8687 49.5977 33.41 48.59C34.1831 48.3417 34.9882 48.207 35.8 48.19C36.1744 48.1878 36.5455 48.2597 36.892 48.4014C37.2384 48.5431 37.5535 48.752 37.819 49.0159C38.0845 49.2799 38.2952 49.5937 38.4389 49.9393C38.5827 50.285 38.6567 50.6557 38.6567 51.03C38.6567 51.4044 38.5827 51.775 38.4389 52.1207C38.2952 52.4664 38.0845 52.7802 37.819 53.0441C37.5535 53.308 37.2384 53.5169 36.892 53.6586C36.5455 53.8004 36.1744 53.8722 35.8 53.87C35.5839 53.8651 35.3692 53.906 35.17 53.99C32.9152 54.5965 30.9681 56.023 29.7101 57.99C28.9976 59.1547 28.6236 60.4947 28.63 61.8599C28.63 66.35 32.78 70.05 37.9 70.05C39.651 70.0463 41.3721 69.5954 42.9 68.74C44.1576 68.0755 45.2153 67.0876 45.964 65.8783C46.7128 64.669 47.1256 63.2819 47.16 61.8599V38.1201C47.1871 35.7023 47.8608 33.3358 49.111 31.2662C50.3613 29.1965 52.1425 27.4991 54.27 26.3501C56.6041 24.9514 59.2791 24.2247 62 24.2501C70.2401 24.2501 77 30.4501 77 38.1201C76.9854 40.5262 76.3184 42.8831 75.07 44.94Z" fill="#EEF0F5"></path>
</svg>